<svg width="137" height="166" viewBox="0 0 137 166" fill="none" xmlns="http://www.w3.org/2000/svg">
<path d="M84.9953 62.9202C89.817 66.8294 90.6937 71.3816 90.0099 72.5154L81.2431 87.6105" stroke="#43C0EF" stroke-width="1.91" stroke-linecap="round" stroke-linejoin="round"/>
<path d="M84.9953 62.9202C89.817 66.8294 90.6937 71.3816 90.0099 72.5154L81.2431 87.6105" stroke="#4BC1ED" stroke-width="1.72" stroke-linecap="round" stroke-linejoin="round"/>
<path d="M84.9953 62.9202C89.817 66.8294 90.6937 71.3816 90.0099 72.5154L81.2431 87.6105" stroke="#5DC5EC" stroke-width="1.53" stroke-linecap="round" stroke-linejoin="round"/>
<path d="M84.9953 62.9202C89.817 66.8294 90.6937 71.3816 90.0099 72.5154L81.2431 87.6105" stroke="#6EC9EB" stroke-width="1.34" stroke-linecap="round" stroke-linejoin="round"/>
<path d="M84.9953 62.9202C89.817 66.8294 90.6937 71.3816 90.0099 72.5154L81.2431 87.6105" stroke="#7DCDEB" stroke-width="1.15" stroke-linecap="round" stroke-linejoin="round"/>
<path d="M84.9953 62.9202C89.817 66.8294 90.6937 71.3816 90.0099 72.5154L81.2431 87.6105" stroke="#88CFE8" stroke-width="0.96" stroke-linecap="round" stroke-linejoin="round"/>
<path d="M84.9953 62.9202C89.817 66.8294 90.6937 71.3816 90.0099 72.5154L81.2431 87.6105" stroke="#B1DEEF" stroke-width="0.76" stroke-linecap="round" stroke-linejoin="round"/>
<path d="M84.9953 62.9202C89.817 66.8294 90.6937 71.3816 90.0099 72.5154L81.2431 87.6105" stroke="#C2E4ED" stroke-width="0.38" stroke-linecap="round" stroke-linejoin="round"/>
<path d="M84.9953 62.9202C89.817 66.8294 90.6937 71.3816 90.0099 72.5154L81.2431 87.6105" stroke="#D8EDF4" stroke-width="0.19" stroke-linecap="round" stroke-linejoin="round"/>
<path d="M58.9581 75.5445L67.7248 60.4495C68.1632 59.671 71.0737 58.8926 74.5629 59.028" stroke="#43C0EF" stroke-width="1.91" stroke-linecap="round" stroke-linejoin="round"/>
<path d="M58.9581 75.5445L67.7248 60.4495C68.1632 59.671 71.0737 58.8926 74.5629 59.028" stroke="#4BC1ED" stroke-width="1.72" stroke-linecap="round" stroke-linejoin="round"/>
<path d="M58.9581 75.5445L67.7248 60.4495C68.1632 59.671 71.0737 58.8926 74.5629 59.028" stroke="#5DC5EC" stroke-width="1.53" stroke-linecap="round" stroke-linejoin="round"/>
<path d="M58.9581 75.5445L67.7248 60.4495C68.1632 59.671 71.0737 58.8926 74.5629 59.028" stroke="#6EC9EB" stroke-width="1.34" stroke-linecap="round" stroke-linejoin="round"/>
<path d="M58.9581 75.5445L67.7248 60.4495C68.1632 59.671 71.0737 58.8926 74.5629 59.028" stroke="#7DCDEB" stroke-width="1.15" stroke-linecap="round" stroke-linejoin="round"/>
<path d="M58.9581 75.5445L67.7248 60.4495C68.1632 59.671 71.0737 58.8926 74.5629 59.028" stroke="#88CFE8" stroke-width="0.96" stroke-linecap="round" stroke-linejoin="round"/>
<path d="M58.9581 75.5445L67.7248 60.4495C68.1632 59.671 71.0737 58.8926 74.5629 59.028" stroke="#B1DEEF" stroke-width="0.76" stroke-linecap="round" stroke-linejoin="round"/>
<path d="M58.9581 75.5445L67.7248 60.4495C68.1632 59.671 71.0737 58.8926 74.5629 59.028" stroke="#D8EDF4" stroke-width="0.19" stroke-linecap="round" stroke-linejoin="round"/>
<path d="M27.8363 159.21C17.3008 153.624 9.10849 144.672 4.66537 133.892C0.222261 123.111 -0.194546 111.174 3.48648 100.13C7.1675 89.0848 14.7168 79.6211 24.8387 73.3626C34.9606 67.1042 47.0239 64.4412 58.9582 65.8309" stroke="#43C0EF" stroke-width="1.91" stroke-linecap="round" stroke-linejoin="round"/>
<path d="M27.8363 159.21C17.3008 153.624 9.10849 144.672 4.66537 133.892C0.222261 123.111 -0.194546 111.174 3.48648 100.13C7.1675 89.0848 14.7168 79.6211 24.8387 73.3626C34.9606 67.1042 47.0239 64.4412 58.9582 65.8309" stroke="#4BC1ED" stroke-width="1.72" stroke-linecap="round" stroke-linejoin="round"/>
<path d="M27.8363 159.21C17.3008 153.624 9.10849 144.672 4.66537 133.892C0.222261 123.111 -0.194546 111.174 3.48648 100.13C7.1675 89.0848 14.7168 79.6211 24.8387 73.3626C34.9606 67.1042 47.0239 64.4412 58.9582 65.8309" stroke="#5DC5EC" stroke-width="1.53" stroke-linecap="round" stroke-linejoin="round"/>
<path d="M27.8363 159.21C17.3008 153.624 9.10849 144.672 4.66537 133.892C0.222261 123.111 -0.194546 111.174 3.48648 100.13C7.1675 89.0848 14.7168 79.6211 24.8387 73.3626C34.9606 67.1042 47.0239 64.4412 58.9582 65.8309" stroke="#6EC9EB" stroke-width="1.34" stroke-linecap="round" stroke-linejoin="round"/>
<path d="M27.8363 159.21C17.3008 153.624 9.10849 144.672 4.66537 133.892C0.222261 123.111 -0.194546 111.174 3.48648 100.13C7.1675 89.0848 14.7168 79.6211 24.8387 73.3626C34.9606 67.1042 47.0239 64.4412 58.9582 65.8309" stroke="#7DCDEB" stroke-width="1.15" stroke-linecap="round" stroke-linejoin="round"/>
<path d="M27.8363 159.21C17.3008 153.624 9.10849 144.672 4.66537 133.892C0.222261 123.111 -0.194546 111.174 3.48648 100.13C7.1675 89.0848 14.7168 79.6211 24.8387 73.3626C34.9606 67.1042 47.0239 64.4412 58.9582 65.8309" stroke="#88CFE8" stroke-width="0.96" stroke-linecap="round" stroke-linejoin="round"/>
<path d="M27.8363 159.21C17.3008 153.624 9.10849 144.672 4.66537 133.892C0.222261 123.111 -0.194546 111.174 3.48648 100.13C7.1675 89.0848 14.7168 79.6211 24.8387 73.3626C34.9606 67.1042 47.0239 64.4412 58.9582 65.8309" stroke="#B1DEEF" stroke-width="0.76" stroke-linecap="round" stroke-linejoin="round"/>
<path d="M27.8363 159.21C17.3008 153.624 9.10849 144.672 4.66537 133.892C0.222261 123.111 -0.194546 111.174 3.48648 100.13C7.1675 89.0848 14.7168 79.6211 24.8387 73.3626C34.9606 67.1042 47.0239 64.4412 58.9582 65.8309" stroke="#C2E4ED" stroke-width="0.38" stroke-linecap="round" stroke-linejoin="round"/>
<path d="M27.8363 159.21C17.3008 153.624 9.10849 144.672 4.66537 133.892C0.222261 123.111 -0.194546 111.174 3.48648 100.13C7.1675 89.0848 14.7168 79.6211 24.8387 73.3626C34.9606 67.1042 47.0239 64.4412 58.9582 65.8309" stroke="#D8EDF4" stroke-width="0.19" stroke-linecap="round" stroke-linejoin="round"/>
<path d="M90.7462 81.5521C96.1263 87.1865 100.091 93.94 102.335 101.29C104.578 108.64 105.04 116.39 103.684 123.939C102.328 131.489 99.1907 138.636 94.5151 144.829C89.8394 151.021 83.7506 156.092 76.7195 159.65" stroke="#43C0EF" stroke-width="1.91" stroke-linecap="round" stroke-linejoin="round"/>
<path d="M90.7462 81.5521C96.1263 87.1865 100.091 93.94 102.335 101.29C104.578 108.64 105.04 116.39 103.684 123.939C102.328 131.489 99.1907 138.636 94.5151 144.829C89.8394 151.021 83.7506 156.092 76.7195 159.65" stroke="#4BC1ED" stroke-width="1.72" stroke-linecap="round" stroke-linejoin="round"/>
<path d="M90.7462 81.5521C96.1263 87.1865 100.091 93.94 102.335 101.29C104.578 108.64 105.04 116.39 103.684 123.939C102.328 131.489 99.1907 138.636 94.5151 144.829C89.8394 151.021 83.7506 156.092 76.7195 159.65" stroke="#5DC5EC" stroke-width="1.53" stroke-linecap="round" stroke-linejoin="round"/>
<path d="M90.7462 81.5521C96.1263 87.1865 100.091 93.94 102.335 101.29C104.578 108.64 105.04 116.39 103.684 123.939C102.328 131.489 99.1907 138.636 94.5151 144.829C89.8394 151.021 83.7506 156.092 76.7195 159.65" stroke="#6EC9EB" stroke-width="1.34" stroke-linecap="round" stroke-linejoin="round"/>
<path d="M90.7462 81.5521C96.1263 87.1865 100.091 93.94 102.335 101.29C104.578 108.64 105.04 116.39 103.684 123.939C102.328 131.489 99.1907 138.636 94.5151 144.829C89.8394 151.021 83.7506 156.092 76.7195 159.65" stroke="#7DCDEB" stroke-width="1.15" stroke-linecap="round" stroke-linejoin="round"/>
<path d="M90.7462 81.5521C96.1263 87.1865 100.091 93.94 102.335 101.29C104.578 108.64 105.04 116.39 103.684 123.939C102.328 131.489 99.1907 138.636 94.5151 144.829C89.8394 151.021 83.7506 156.092 76.7195 159.65" stroke="#88CFE8" stroke-width="0.96" stroke-linecap="round" stroke-linejoin="round"/>
<path d="M90.7462 81.5521C96.1263 87.1865 100.091 93.94 102.335 101.29C104.578 108.64 105.04 116.39 103.684 123.939C102.328 131.489 99.1907 138.636 94.5151 144.829C89.8394 151.021 83.7506 156.092 76.7195 159.65" stroke="#B1DEEF" stroke-width="0.76" stroke-linecap="round" stroke-linejoin="round"/>
<path d="M90.7462 81.5521C96.1263 87.1865 100.091 93.94 102.335 101.29C104.578 108.64 105.04 116.39 103.684 123.939C102.328 131.489 99.1907 138.636 94.5151 144.829C89.8394 151.021 83.7506 156.092 76.7195 159.65" stroke="#C2E4ED" stroke-width="0.38" stroke-linecap="round" stroke-linejoin="round"/>
<path d="M90.7462 81.5521C96.1263 87.1865 100.091 93.94 102.335 101.29C104.578 108.64 105.04 116.39 103.684 123.939C102.328 131.489 99.1907 138.636 94.5151 144.829C89.8394 151.021 83.7506 156.092 76.7195 159.65" stroke="#D8EDF4" stroke-width="0.19" stroke-linecap="round" stroke-linejoin="round"/>
<path d="M12.0212 111.556C12.5731 106.184 14.2577 100.978 16.9715 96.2574C19.6852 91.537 23.3707 87.4023 27.8013 84.1074" stroke="#43C0EF" stroke-width="1.91" stroke-linecap="round" stroke-linejoin="round"/>
<path d="M12.0212 111.556C12.5731 106.184 14.2577 100.978 16.9715 96.2574C19.6852 91.537 23.3707 87.4023 27.8013 84.1074" stroke="#4BC1ED" stroke-width="1.72" stroke-linecap="round" stroke-linejoin="round"/>
<path d="M12.0212 111.556C12.5731 106.184 14.2577 100.978 16.9715 96.2574C19.6852 91.537 23.3707 87.4023 27.8013 84.1074" stroke="#5DC5EC" stroke-width="1.53" stroke-linecap="round" stroke-linejoin="round"/>
<path d="M12.0212 111.556C12.5731 106.184 14.2577 100.978 16.9715 96.2574C19.6852 91.537 23.3707 87.4023 27.8013 84.1074" stroke="#6EC9EB" stroke-width="1.34" stroke-linecap="round" stroke-linejoin="round"/>
<path d="M12.0212 111.556C12.5731 106.184 14.2577 100.978 16.9715 96.2574C19.6852 91.537 23.3707 87.4023 27.8013 84.1074" stroke="#7DCDEB" stroke-width="1.15" stroke-linecap="round" stroke-linejoin="round"/>
<path d="M12.0212 111.556C12.5731 106.184 14.2577 100.978 16.9715 96.2574C19.6852 91.537 23.3707 87.4023 27.8013 84.1074" stroke="#88CFE8" stroke-width="0.96" stroke-linecap="round" stroke-linejoin="round"/>
<path d="M12.0212 111.556C12.5731 106.184 14.2577 100.978 16.9715 96.2574C19.6852 91.537 23.3707 87.4023 27.8013 84.1074" stroke="#B1DEEF" stroke-width="0.76" stroke-linecap="round" stroke-linejoin="round"/>
<path d="M12.0212 111.556C12.5731 106.184 14.2577 100.978 16.9715 96.2574C19.6852 91.537 23.3707 87.4023 27.8013 84.1074" stroke="#C2E4ED" stroke-width="0.38" stroke-linecap="round" stroke-linejoin="round"/>
<path d="M12.0212 111.556C12.5731 106.184 14.2577 100.978 16.9715 96.2574C19.6852 91.537 23.3707 87.4023 27.8013 84.1074" stroke="#D8EDF4" stroke-width="0.19" stroke-linecap="round" stroke-linejoin="round"/>
<path d="M31.7463 81.5521C34.4055 80.0215 37.2344 78.784 40.1798 77.863C40.9513 77.626 41.7403 77.406 42.5293 77.2199" stroke="#43C0EF" stroke-width="1.91" stroke-linecap="round" stroke-linejoin="round"/>
<path d="M31.7463 81.5521C34.4055 80.0215 37.2344 78.784 40.1798 77.863C40.9513 77.626 41.7403 77.406 42.5293 77.2199" stroke="#4BC1ED" stroke-width="1.72" stroke-linecap="round" stroke-linejoin="round"/>
<path d="M31.7463 81.5521C34.4055 80.0215 37.2344 78.784 40.1798 77.863C40.9513 77.626 41.7403 77.406 42.5293 77.2199" stroke="#5DC5EC" stroke-width="1.53" stroke-linecap="round" stroke-linejoin="round"/>
<path d="M31.7463 81.5521C34.4055 80.0215 37.2344 78.784 40.1798 77.863C40.9513 77.626 41.7403 77.406 42.5293 77.2199" stroke="#6EC9EB" stroke-width="1.34" stroke-linecap="round" stroke-linejoin="round"/>
<path d="M31.7463 81.5521C34.4055 80.0215 37.2344 78.784 40.1798 77.863C40.9513 77.626 41.7403 77.406 42.5293 77.2199" stroke="#7DCDEB" stroke-width="1.15" stroke-linecap="round" stroke-linejoin="round"/>
<path d="M31.7463 81.5521C34.4055 80.0215 37.2344 78.784 40.1798 77.863C40.9513 77.626 41.7403 77.406 42.5293 77.2199" stroke="#88CFE8" stroke-width="0.96" stroke-linecap="round" stroke-linejoin="round"/>
<path d="M31.7463 81.5521C34.4055 80.0215 37.2344 78.784 40.1798 77.863C40.9513 77.626 41.7403 77.406 42.5293 77.2199" stroke="#B1DEEF" stroke-width="0.76" stroke-linecap="round" stroke-linejoin="round"/>
<path d="M31.7463 81.5521C34.4055 80.0215 37.2344 78.784 40.1798 77.863C40.9513 77.626 41.7403 77.406 42.5293 77.2199" stroke="#C2E4ED" stroke-width="0.38" stroke-linecap="round" stroke-linejoin="round"/>
<path d="M31.7463 81.5521C34.4055 80.0215 37.2344 78.784 40.1798 77.863C40.9513 77.626 41.7403 77.406 42.5293 77.2199" stroke="#D8EDF4" stroke-width="0.19" stroke-linecap="round" stroke-linejoin="round"/>
<path d="M79.595 70.9077C81.8787 71.5696 84.2304 71.9893 86.6084 72.1594" stroke="#43C0EF" stroke-width="1.91" stroke-linecap="round" stroke-linejoin="round"/>
<path d="M79.595 70.9077C81.8787 71.5696 84.2304 71.9893 86.6084 72.1594" stroke="#4BC1ED" stroke-width="1.72" stroke-linecap="round" stroke-linejoin="round"/>
<path d="M79.595 70.9077C81.8787 71.5696 84.2304 71.9893 86.6084 72.1594" stroke="#5DC5EC" stroke-width="1.53" stroke-linecap="round" stroke-linejoin="round"/>
<path d="M79.595 70.9077C81.8787 71.5696 84.2304 71.9893 86.6084 72.1594" stroke="#6EC9EB" stroke-width="1.34" stroke-linecap="round" stroke-linejoin="round"/>
<path d="M79.595 70.9077C81.8787 71.5696 84.2304 71.9893 86.6084 72.1594" stroke="#7DCDEB" stroke-width="1.15" stroke-linecap="round" stroke-linejoin="round"/>
<path d="M79.595 70.9077C81.8787 71.5696 84.2304 71.9893 86.6084 72.1594" stroke="#88CFE8" stroke-width="0.96" stroke-linecap="round" stroke-linejoin="round"/>
<path d="M79.595 70.9077C81.8787 71.5696 84.2304 71.9893 86.6084 72.1594" stroke="#B1DEEF" stroke-width="0.76" stroke-linecap="round" stroke-linejoin="round"/>
<path d="M79.595 70.9077C81.8787 71.5696 84.2304 71.9893 86.6084 72.1594" stroke="#C2E4ED" stroke-width="0.38" stroke-linecap="round" stroke-linejoin="round"/>
<path d="M79.595 70.9077C81.8787 71.5696 84.2304 71.9893 86.6084 72.1594" stroke="#D8EDF4" stroke-width="0.19" stroke-linecap="round" stroke-linejoin="round"/>
<path d="M70.2322 63.174C70.9447 65.4326 72.4922 67.3598 74.5804 68.5893" stroke="#43C0EF" stroke-width="1.91" stroke-linecap="round" stroke-linejoin="round"/>
<path d="M70.2322 63.174C70.9447 65.4326 72.4922 67.3598 74.5804 68.5893" stroke="#4BC1ED" stroke-width="1.72" stroke-linecap="round" stroke-linejoin="round"/>
<path d="M70.2322 63.174C70.9447 65.4326 72.4922 67.3598 74.5804 68.5893" stroke="#5DC5EC" stroke-width="1.53" stroke-linecap="round" stroke-linejoin="round"/>
<path d="M70.2322 63.174C70.9447 65.4326 72.4922 67.3598 74.5804 68.5893" stroke="#6EC9EB" stroke-width="1.34" stroke-linecap="round" stroke-linejoin="round"/>
<path d="M70.2322 63.174C70.9447 65.4326 72.4922 67.3598 74.5804 68.5893" stroke="#7DCDEB" stroke-width="1.15" stroke-linecap="round" stroke-linejoin="round"/>
<path d="M70.2322 63.174C70.9447 65.4326 72.4922 67.3598 74.5804 68.5893" stroke="#88CFE8" stroke-width="0.96" stroke-linecap="round" stroke-linejoin="round"/>
<path d="M70.2322 63.174C70.9447 65.4326 72.4922 67.3598 74.5804 68.5893" stroke="#B1DEEF" stroke-width="0.76" stroke-linecap="round" stroke-linejoin="round"/>
<path d="M70.2322 63.174C70.9447 65.4326 72.4922 67.3598 74.5804 68.5893" stroke="#C2E4ED" stroke-width="0.38" stroke-linecap="round" stroke-linejoin="round"/>
<path d="M70.2322 63.174C70.9447 65.4326 72.4922 67.3598 74.5804 68.5893" stroke="#D8EDF4" stroke-width="0.19" stroke-linecap="round" stroke-linejoin="round"/>
<path d="M80.1911 65.4247C78.4378 65.0355 80.1911 60.6864 80.6645 59.9926C84.7849 53.9342 92.9379 55.0173 99.2675 55.4234C103.286 55.7642 107.321 54.983 110.892 53.1727C114.697 51.0066 117.73 45.439 114.399 41.6991" stroke="#FFE003" stroke-width="1.91" stroke-linecap="round" stroke-linejoin="round"/>
<path d="M80.1911 65.4247C78.4378 65.0355 80.1911 60.6864 80.6645 59.9926C84.7849 53.9342 92.9379 55.0173 99.2675 55.4234C103.286 55.7642 107.321 54.983 110.892 53.1727C114.697 51.0066 117.73 45.439 114.399 41.6991" stroke="#FFE313" stroke-width="1.72" stroke-linecap="round" stroke-linejoin="round"/>
<path d="M80.1911 65.4247C78.4378 65.0355 80.1911 60.6864 80.6645 59.9926C84.7849 53.9342 92.9379 55.0173 99.2675 55.4234C103.286 55.7642 107.321 54.983 110.892 53.1727C114.697 51.0066 117.73 45.439 114.399 41.6991" stroke="#FFE835" stroke-width="1.53" stroke-linecap="round" stroke-linejoin="round"/>
<path d="M80.1911 65.4247C78.4378 65.0355 80.1911 60.6864 80.6645 59.9926C84.7849 53.9342 92.9379 55.0173 99.2675 55.4234C103.286 55.7642 107.321 54.983 110.892 53.1727C114.697 51.0066 117.73 45.439 114.399 41.6991" stroke="#FFEB51" stroke-width="1.34" stroke-linecap="round" stroke-linejoin="round"/>
<path d="M80.1911 65.4247C78.4378 65.0355 80.1911 60.6864 80.6645 59.9926C84.7849 53.9342 92.9379 55.0173 99.2675 55.4234C103.286 55.7642 107.321 54.983 110.892 53.1727C114.697 51.0066 117.73 45.439 114.399 41.6991" stroke="#FFEE6E" stroke-width="1.15" stroke-linecap="round" stroke-linejoin="round"/>
<path d="M80.1911 65.4247C78.4378 65.0355 80.1911 60.6864 80.6645 59.9926C84.7849 53.9342 92.9379 55.0173 99.2675 55.4234C103.286 55.7642 107.321 54.983 110.892 53.1727C114.697 51.0066 117.73 45.439 114.399 41.6991" stroke="#FFF18D" stroke-width="0.96" stroke-linecap="round" stroke-linejoin="round"/>
<path d="M80.1911 65.4247C78.4378 65.0355 80.1911 60.6864 80.6645 59.9926C84.7849 53.9342 92.9379 55.0173 99.2675 55.4234C103.286 55.7642 107.321 54.983 110.892 53.1727C114.697 51.0066 117.73 45.439 114.399 41.6991" stroke="#FFF5AC" stroke-width="0.76" stroke-linecap="round" stroke-linejoin="round"/>
<path d="M80.1911 65.4247C78.4378 65.0355 80.1911 60.6864 80.6645 59.9926C84.7849 53.9342 92.9379 55.0173 99.2675 55.4234C103.286 55.7642 107.321 54.983 110.892 53.1727C114.697 51.0066 117.73 45.439 114.399 41.6991" stroke="#FDF7C7" stroke-width="0.38" stroke-linecap="round" stroke-linejoin="round"/>
<path d="M100.881 32.6116L86.6084 21.578L105.983 18.4642L115.188 1L118.94 16.8058L136 19.7842L123.709 27.0271L129.513 44.4745L112.225 31.6301L100.881 45.7944V32.6116Z" stroke="#FFE003" stroke-width="1.91" stroke-linecap="round" stroke-linejoin="round"/>
<path d="M100.881 32.6116L86.6084 21.578L105.983 18.4642L115.188 1L118.94 16.8058L136 19.7842L123.709 27.0271L129.513 44.4745L112.225 31.6301L100.881 45.7944V32.6116Z" stroke="#FFE313" stroke-width="1.72" stroke-linecap="round" stroke-linejoin="round"/>
<path d="M100.881 32.6116L86.6084 21.578L105.983 18.4642L115.188 1L118.94 16.8058L136 19.7842L123.709 27.0271L129.513 44.4745L112.225 31.6301L100.881 45.7944V32.6116Z" stroke="#FFE835" stroke-width="1.53" stroke-linecap="round" stroke-linejoin="round"/>
<path d="M100.881 32.6116L86.6084 21.578L105.983 18.4642L115.188 1L118.94 16.8058L136 19.7842L123.709 27.0271L129.513 44.4745L112.225 31.6301L100.881 45.7944V32.6116Z" stroke="#FFEB51" stroke-width="1.34" stroke-linecap="round" stroke-linejoin="round"/>
<path d="M100.881 32.6116L86.6084 21.578L105.983 18.4642L115.188 1L118.94 16.8058L136 19.7842L123.709 27.0271L129.513 44.4745L112.225 31.6301L100.881 45.7944V32.6116Z" stroke="#FFEE6E" stroke-width="1.15" stroke-linecap="round" stroke-linejoin="round"/>
<path d="M100.881 32.6116L86.6084 21.578L105.983 18.4642L115.188 1L118.94 16.8058L136 19.7842L123.709 27.0271L129.513 44.4745L112.225 31.6301L100.881 45.7944V32.6116Z" stroke="#FFF18D" stroke-width="0.96" stroke-linecap="round" stroke-linejoin="round"/>
<path d="M100.881 32.6116L86.6084 21.578L105.983 18.4642L115.188 1L118.94 16.8058L136 19.7842L123.709 27.0271L129.513 44.4745L112.225 31.6301L100.881 45.7944V32.6116Z" stroke="#FFF5AC" stroke-width="0.76" stroke-linecap="round" stroke-linejoin="round"/>
<path d="M100.881 32.6116L86.6084 21.578L105.983 18.4642L115.188 1L118.94 16.8058L136 19.7842L123.709 27.0271L129.513 44.4745L112.225 31.6301L100.881 45.7944V32.6116Z" stroke="#FDF7C7" stroke-width="0.38" stroke-linecap="round" stroke-linejoin="round"/>
<path d="M119.974 1L122.92 12.7951" stroke="#FFE003" stroke-width="1.91" stroke-linecap="round" stroke-linejoin="round"/>
<path d="M119.974 1L122.92 12.7951" stroke="#FFE313" stroke-width="1.72" stroke-linecap="round" stroke-linejoin="round"/>
<path d="M119.974 1L122.92 12.7951" stroke="#FFE835" stroke-width="1.53" stroke-linecap="round" stroke-linejoin="round"/>
<path d="M119.974 1L122.92 12.7951" stroke="#FFEB51" stroke-width="1.34" stroke-linecap="round" stroke-linejoin="round"/>
<path d="M119.974 1L122.92 12.7951" stroke="#FFEE6E" stroke-width="1.15" stroke-linecap="round" stroke-linejoin="round"/>
<path d="M119.974 1L122.92 12.7951" stroke="#FFF18D" stroke-width="0.96" stroke-linecap="round" stroke-linejoin="round"/>
<path d="M119.974 1L122.92 12.7951" stroke="#FFF5AC" stroke-width="0.76" stroke-linecap="round" stroke-linejoin="round"/>
<path d="M119.974 1L122.92 12.7951" stroke="#FDF7C7" stroke-width="0.38" stroke-linecap="round" stroke-linejoin="round"/>
<path style="mix-blend-mode:screen" d="M54.1189 165.996C72.3011 165.895 86.8363 163.627 86.5908 160.92C86.3454 158.212 71.4244 156.13 53.2773 156.232C35.1302 156.334 20.56 158.601 20.8054 161.309C21.0509 164.016 35.9543 166.098 54.1189 165.996Z" fill="url(#paint0_radial_24_633)"/>
<defs>
<radialGradient id="paint0_radial_24_633" cx="0" cy="0" r="1" gradientUnits="userSpaceOnUse" gradientTransform="translate(36.0669 191.198) rotate(85.1655) scale(5.05129 31.1958)">
<stop offset="0.01" stop-color="#FFED00"/>
<stop offset="0.02" stop-color="#FBE900"/>
<stop offset="0.31" stop-color="#A39800"/>
<stop offset="0.55" stop-color="#5D5700" stop-opacity="0.59"/>
<stop offset="0.76" stop-color="#2B2800" stop-opacity="0"/>
<stop offset="0.91" stop-color="#0C0B00" stop-opacity="0"/>
<stop offset="1" stop-opacity="0"/>
</radialGradient>
</defs>
</svg>
